<?xml version="1.0" encoding="UTF-8" standalone="no"?><!DOCTYPE svg PUBLIC "-//W3C//DTD SVG 1.1//EN" "http://www.w3.org/Graphics/SVG/1.1/DTD/svg11.dtd"><svg width="100%" height="100%" viewBox="0 0 1799 1804" version="1.1" xmlns="http://www.w3.org/2000/svg" xmlns:xlink="http://www.w3.org/1999/xlink" xml:space="preserve" xmlns:serif="http://www.serif.com/" style="fill-rule:evenodd;clip-rule:evenodd;stroke-linejoin:round;stroke-miterlimit:2;"><g><g><path d="M4.408,1586.36c-1.633,-0 -2.775,-0.572 -3.428,-1.714c-0.653,-1.143 -0.98,-2.368 -0.98,-3.674c0.163,-2.775 0.816,-4.326 1.959,-4.652c1.143,-0.327 2.531,-0.49 4.163,-0.49c4.408,-0 7.755,-0.898 10.04,-2.694c2.286,-1.796 4.123,-4.163 5.51,-7.102c1.388,-2.938 2.735,-5.958 4.041,-9.06l42.855,-101.383c1.632,-3.918 1.959,-6.897 0.979,-8.938c-0.979,-2.041 -2.612,-3.51 -4.897,-4.408c-2.286,-0.898 -4.816,-1.592 -7.592,-2.081c-2.449,-0.49 -4.081,-0.939 -4.898,-1.347c-0.816,-0.408 -1.224,-1.837 -1.224,-4.286c0,-2.775 0.98,-4.285 2.939,-4.53c1.959,-0.245 4.244,-0.367 6.856,-0.367c6.694,-0 12.408,0.653 17.142,1.959c4.735,1.306 8.816,3.795 12.245,7.469c3.428,3.673 6.611,9.183 9.55,16.529l41.141,101.383c1.143,2.775 2.367,5.632 3.673,8.571c1.306,2.938 3.061,5.346 5.265,7.224c2.204,1.877 5.02,2.898 8.449,3.061c1.795,-0 3.224,0.163 4.285,0.49c1.061,0.326 1.673,1.877 1.837,4.652c-0,1.306 -0.368,2.531 -1.102,3.674c-0.735,1.142 -1.837,1.714 -3.306,1.714c-5.224,-0.327 -9.796,-0.531 -13.714,-0.612c-3.918,-0.082 -8.326,-0.123 -13.224,-0.123c-9.632,0 -19.754,0.245 -30.365,0.735c-1.633,-0 -2.776,-0.572 -3.429,-1.714c-0.653,-1.143 -0.979,-2.368 -0.979,-3.674c0.163,-2.775 0.816,-4.326 1.959,-4.652c1.143,-0.327 2.53,-0.49 4.163,-0.49c7.999,-0 12.367,-1.469 13.101,-4.408c0.735,-2.939 -0.041,-7.755 -2.326,-14.448l-8.326,-20.326l-60.487,0c-2.449,6.204 -4.204,10.694 -5.265,13.469c-1.061,2.775 -1.714,4.571 -1.959,5.387c-0.245,0.817 -0.449,1.306 -0.612,1.47c-1.796,5.55 -2.735,9.673 -2.816,12.366c-0.082,2.694 1.224,4.449 3.918,5.265c2.694,0.817 7.224,1.225 13.591,1.225c1.796,-0 3.224,0.163 4.285,0.49c1.062,0.326 1.674,1.877 1.837,4.652c0,1.306 -0.367,2.531 -1.102,3.674c-0.735,1.142 -1.837,1.714 -3.306,1.714c-5.224,-0.327 -9.754,-0.531 -13.591,-0.612c-3.836,-0.082 -8.204,-0.123 -13.101,-0.123c-3.265,0 -6,0.041 -8.204,0.123c-2.204,0.081 -4.449,0.163 -6.734,0.245c-2.286,0.081 -5.224,0.204 -8.816,0.367Zm46.528,-60.242l51.426,0l-24.734,-62.935l-0.734,-0l-25.958,62.935Z" style="fill:#fff;fill-rule:nonzero;"/><path d="M253.456,1590.52c-13.714,-0 -26.285,-3.265 -37.713,-9.795c-11.428,-6.531 -20.611,-15.836 -27.549,-27.917c-6.938,-12.081 -10.408,-26.53 -10.408,-43.345c0,-16.652 3.265,-31.223 9.796,-43.712c6.53,-12.489 15.795,-22.203 27.794,-29.141c11.999,-6.939 26.162,-10.408 42.488,-10.408c5.877,0 11.958,0.572 18.244,1.714c6.285,1.143 12.121,3.062 17.509,5.755c5.387,2.694 9.754,6.245 13.101,10.653c3.347,4.408 5.02,9.877 5.02,16.407c0.164,7.02 -1.959,13.183 -6.367,18.489c-4.408,5.306 -10.611,7.959 -18.611,7.959c-4.898,-0 -8.367,-1.184 -10.408,-3.551c-2.04,-2.368 -2.979,-4.123 -2.816,-5.265c0,-0.49 1.021,-1.347 3.061,-2.572c2.041,-1.224 4.082,-3.101 6.122,-5.632c2.041,-2.53 3.061,-5.918 3.061,-10.163c0,-7.346 -2.448,-13.183 -7.346,-17.509c-4.898,-4.326 -11.836,-6.489 -20.815,-6.489c-9.796,-0 -18.571,2.775 -26.325,8.326c-7.755,5.55 -13.836,13.672 -18.244,24.366c-4.408,10.693 -6.612,23.794 -6.612,39.304c-0,13.06 2.326,24.937 6.979,35.63c4.653,10.694 11.183,19.183 19.591,25.468c8.408,6.286 18.162,9.429 29.264,9.429c8.815,-0 16.366,-1.837 22.651,-5.51c6.286,-3.674 11.959,-9.592 17.02,-17.754c1.469,-2.776 4.081,-3.021 7.836,-0.735c1.469,0.979 2.612,2.163 3.429,3.551c0.816,1.387 0.653,2.816 -0.49,4.285c-6.204,7.836 -12.081,13.755 -17.632,17.754c-5.551,4 -11.591,6.735 -18.121,8.204c-6.531,1.469 -14.367,2.204 -23.509,2.204Z" style="fill:#fff;fill-rule:nonzero;"/><path d="M419.243,1590.52c-11.918,-0 -22.693,-2.204 -32.325,-6.612c-9.632,-4.408 -17.877,-10.367 -24.733,-17.877c-6.857,-7.509 -12.081,-16.04 -15.673,-25.59c-3.592,-9.551 -5.388,-19.55 -5.388,-29.998c0,-13.551 2.327,-25.55 6.98,-35.998c4.652,-10.449 10.815,-19.265 18.488,-26.448c7.674,-7.183 16.122,-12.612 25.346,-16.285c9.224,-3.673 18.326,-5.51 27.305,-5.51c12.244,0 23.223,2.204 32.937,6.612c9.713,4.408 17.999,10.367 24.855,17.877c6.857,7.51 12.081,16.04 15.673,25.59c3.592,9.551 5.388,19.469 5.388,29.754c-0,13.55 -2.368,25.549 -7.102,35.998c-4.735,10.448 -11.02,19.264 -18.856,26.447c-7.837,7.184 -16.367,12.653 -25.591,16.408c-9.224,3.754 -18.325,5.632 -27.304,5.632Zm-0.245,-10.775c11.591,-0 21.06,-3.428 28.406,-10.285c7.347,-6.857 12.775,-15.877 16.285,-27.06c3.51,-11.183 5.265,-23.305 5.265,-36.365c0,-12.245 -1.836,-23.632 -5.51,-34.162c-3.673,-10.53 -9.183,-19.019 -16.529,-25.468c-7.347,-6.448 -16.653,-9.673 -27.917,-9.673c-11.428,0 -20.775,3.388 -28.04,10.163c-7.264,6.775 -12.611,15.673 -16.039,26.692c-3.429,11.02 -5.143,23.06 -5.143,36.121c-0,12.244 1.755,23.713 5.265,34.406c3.51,10.694 8.938,19.305 16.285,25.836c7.346,6.53 16.57,9.795 27.672,9.795Z" style="fill:#fff;fill-rule:nonzero;"/><path d="M528.951,1586.36c-1.633,-0 -2.775,-0.572 -3.428,-1.714c-0.653,-1.143 -0.98,-2.368 -0.98,-3.674c0.163,-2.775 0.816,-4.326 1.959,-4.652c1.143,-0.327 2.531,-0.49 4.163,-0.49c5.224,-0 8.898,-0.939 11.02,-2.816c2.122,-1.878 3.469,-4.245 4.041,-7.102c0.571,-2.857 0.857,-5.836 0.857,-8.938l-0,-96.975c-0,-3.102 -0.286,-6.122 -0.857,-9.06c-0.572,-2.939 -1.919,-5.347 -4.041,-7.224c-2.122,-1.878 -5.796,-2.817 -11.02,-2.817c-1.632,0 -3.02,-0.163 -4.163,-0.489c-1.143,-0.327 -1.796,-1.878 -1.959,-4.653c0,-1.306 0.327,-2.531 0.98,-3.674c0.653,-1.142 1.795,-1.714 3.428,-1.714c5.224,0.164 10.163,0.327 14.816,0.49c4.652,0.163 9.428,0.245 14.325,0.245l42.12,-0c13.224,0.163 23.958,2.204 32.203,6.122c8.244,3.918 14.244,8.898 17.999,14.938c3.755,6.041 5.632,12.326 5.632,18.856c0,8.653 -3.469,16.816 -10.407,24.489c-6.939,7.673 -16.693,13.142 -29.264,16.407c6.204,9.795 12.489,19.631 18.856,29.509c6.367,9.877 13.714,19.141 22.04,27.794c2.285,1.796 4.53,3.265 6.734,4.408c2.204,1.143 4.857,1.877 7.959,2.204c1.306,0.163 2.612,0.367 3.918,0.612c1.306,0.245 2.041,1.755 2.204,4.53c-0,1.306 -0.327,2.531 -0.98,3.674c-0.653,1.142 -1.796,1.714 -3.428,1.714c-3.428,-0.163 -6.163,-0.286 -8.204,-0.367c-2.04,-0.082 -4.04,-0.164 -5.999,-0.245c-1.959,-0.082 -4.572,-0.123 -7.837,-0.123c-6.693,-1.306 -12.366,-3.673 -17.019,-7.101c-4.653,-3.429 -9.183,-8.163 -13.591,-14.204c-4.571,-6.204 -8.816,-12.489 -12.734,-18.856c-3.918,-6.367 -7.755,-12.571 -11.51,-18.611c-2.122,-3.429 -4.285,-5.918 -6.489,-7.469c-2.204,-1.551 -6.327,-2.327 -12.367,-2.327l-7.102,0l0,39.917c0.164,3.102 0.49,6.081 0.98,8.938c0.49,2.857 1.836,5.224 4.04,7.102c2.204,1.877 5.837,2.816 10.898,2.816c1.632,-0 3.02,0.163 4.163,0.49c1.143,0.326 1.796,1.877 1.959,4.652c-0,1.306 -0.327,2.531 -0.98,3.674c-0.653,1.142 -1.795,1.714 -3.428,1.714c-10.448,-0.49 -20.652,-0.735 -30.611,-0.735c-4.897,0 -9.632,0.041 -14.203,0.123c-4.571,0.081 -9.469,0.285 -14.693,0.612Zm41.875,-78.853l21.55,-0c8.326,-0 14.897,-1.143 19.713,-3.428c4.816,-2.286 8.449,-5.225 10.898,-8.816c2.449,-3.592 4.04,-7.347 4.775,-11.265c0.735,-3.918 1.102,-7.51 1.102,-10.775c-0,-5.387 -1.184,-10.612 -3.551,-15.673c-2.367,-5.06 -6.53,-9.223 -12.489,-12.489c-5.959,-3.265 -14.244,-4.897 -24.856,-4.897c-7.02,-0 -11.632,1.347 -13.836,4.04c-2.204,2.694 -3.306,8.122 -3.306,16.285l0,47.018Z" style="fill:#fff;fill-rule:nonzero;"/><path d="M700.615,1586.36c-1.632,-0 -2.775,-0.572 -3.428,-1.714c-0.653,-1.143 -0.98,-2.368 -0.98,-3.674c0.164,-2.775 0.817,-4.326 1.959,-4.652c1.143,-0.327 2.531,-0.49 4.163,-0.49c5.225,-0 8.898,-0.939 11.02,-2.816c2.123,-1.878 3.469,-4.245 4.041,-7.102c0.571,-2.857 0.857,-5.836 0.857,-8.938l-0,-96.975c-0,-3.102 -0.286,-6.122 -0.857,-9.06c-0.572,-2.939 -1.918,-5.347 -4.041,-7.224c-2.122,-1.878 -5.795,-2.817 -11.02,-2.817c-1.632,0 -3.02,-0.163 -4.163,-0.489c-1.142,-0.327 -1.795,-1.878 -1.959,-4.653c0,-1.306 0.327,-2.531 0.98,-3.674c0.653,-1.142 1.796,-1.714 3.428,-1.714c5.224,0.164 10.163,0.327 14.816,0.49c4.653,0.163 9.428,0.245 14.326,0.245l42.12,-0c13.223,0.163 23.958,2.204 32.202,6.122c8.244,3.918 14.244,8.898 17.999,14.938c3.755,6.041 5.632,12.326 5.632,18.856c0,8.653 -3.469,16.816 -10.407,24.489c-6.939,7.673 -16.693,13.142 -29.264,16.407c6.204,9.795 12.489,19.631 18.856,29.509c6.367,9.877 13.714,19.141 22.04,27.794c2.285,1.796 4.53,3.265 6.734,4.408c2.204,1.143 4.857,1.877 7.959,2.204c1.306,0.163 2.612,0.367 3.918,0.612c1.306,0.245 2.041,1.755 2.204,4.53c0,1.306 -0.326,2.531 -0.98,3.674c-0.653,1.142 -1.795,1.714 -3.428,1.714c-3.428,-0.163 -6.163,-0.286 -8.204,-0.367c-2.04,-0.082 -4.04,-0.164 -5.999,-0.245c-1.959,-0.082 -4.571,-0.123 -7.837,-0.123c-6.693,-1.306 -12.366,-3.673 -17.019,-7.101c-4.653,-3.429 -9.183,-8.163 -13.591,-14.204c-4.571,-6.204 -8.816,-12.489 -12.734,-18.856c-3.918,-6.367 -7.755,-12.571 -11.51,-18.611c-2.122,-3.429 -4.285,-5.918 -6.489,-7.469c-2.204,-1.551 -6.326,-2.327 -12.367,-2.327l-7.101,0l-0,39.917c0.163,3.102 0.489,6.081 0.979,8.938c0.49,2.857 1.837,5.224 4.041,7.102c2.204,1.877 5.836,2.816 10.897,2.816c1.633,-0 3.02,0.163 4.163,0.49c1.143,0.326 1.796,1.877 1.959,4.652c0,1.306 -0.326,2.531 -0.979,3.674c-0.653,1.142 -1.796,1.714 -3.429,1.714c-10.448,-0.49 -20.652,-0.735 -30.61,-0.735c-4.898,0 -9.633,0.041 -14.204,0.123c-4.571,0.081 -9.469,0.285 -14.693,0.612Zm41.876,-78.853l21.549,-0c8.326,-0 14.898,-1.143 19.714,-3.428c4.816,-2.286 8.448,-5.225 10.897,-8.816c2.449,-3.592 4.041,-7.347 4.775,-11.265c0.735,-3.918 1.102,-7.51 1.102,-10.775c0,-5.387 -1.183,-10.612 -3.551,-15.673c-2.367,-5.06 -6.53,-9.223 -12.489,-12.489c-5.959,-3.265 -14.244,-4.897 -24.856,-4.897c-7.02,-0 -11.632,1.347 -13.836,4.04c-2.204,2.694 -3.305,8.122 -3.305,16.285l-0,47.018Z" style="fill:#fff;fill-rule:nonzero;"/><path d="M872.035,1586.36c-1.47,-0 -2.531,-0.572 -3.184,-1.714c-0.653,-1.143 -0.98,-2.368 -0.98,-3.674c0.164,-2.775 0.817,-4.326 1.96,-4.652c1.142,-0.327 2.53,-0.49 4.163,-0.49c5.224,-0 8.897,-0.939 11.019,-2.816c2.123,-1.878 3.47,-4.245 4.041,-7.102c0.571,-2.857 0.857,-5.836 0.857,-8.938l0,-97.22c0,-3.101 -0.286,-6.081 -0.857,-8.938c-0.571,-2.857 -1.918,-5.224 -4.041,-7.101c-2.122,-1.878 -5.795,-2.817 -11.019,-2.817c-1.633,0 -3.021,-0.163 -4.163,-0.489c-1.143,-0.327 -1.796,-1.878 -1.96,-4.653c0,-1.306 0.327,-2.531 0.98,-3.674c0.653,-1.142 1.714,-1.714 3.184,-1.714c5.387,0.164 10.366,0.327 14.938,0.49c4.571,0.163 9.305,0.245 14.203,0.245l76.894,-0c1.795,-0 3.306,0.408 4.53,1.224c1.224,0.817 1.837,2.368 1.837,4.653l0.734,34.284c0,1.633 -0.775,2.857 -2.326,3.673c-1.551,0.817 -2.98,1.225 -4.286,1.225c-1.795,-0 -3.428,-0.368 -4.897,-1.102c-1.47,-0.735 -2.368,-1.837 -2.694,-3.306c-1.143,-7.347 -2.49,-13.265 -4.041,-17.754c-1.551,-4.49 -3.836,-7.755 -6.856,-9.796c-3.021,-2.04 -7.388,-3.142 -13.102,-3.306l-32.814,0l-0,62.201l44.324,0c1.306,0.163 2.245,0.816 2.816,1.959c0.571,1.143 0.857,2.367 0.857,3.673c0,1.143 -0.286,2.245 -0.857,3.306c-0.571,1.062 -1.51,1.592 -2.816,1.592l-44.324,0l-0,46.283c0.163,2.123 0.489,4.449 0.979,6.98c0.49,2.53 1.919,4.693 4.286,6.489c2.367,1.796 6.326,2.612 11.877,2.449l22.529,-0c5.714,-0.163 10.081,-1.102 13.101,-2.816c3.021,-1.715 5.429,-4.612 7.224,-8.694c1.796,-4.081 3.755,-9.714 5.878,-16.897c0.653,-1.632 1.755,-2.694 3.306,-3.183c1.551,-0.49 3.224,-0.572 5.02,-0.245c1.306,0.163 2.653,0.734 4.04,1.714c1.388,0.98 2,2.286 1.837,3.918l-4.898,30.856c-0.489,2.285 -1.265,3.714 -2.326,4.285c-1.061,0.572 -2.653,0.857 -4.775,0.857l-80.812,0c-4.898,0 -9.673,0.041 -14.326,0.123c-4.653,0.081 -9.673,0.285 -15.06,0.612Z" style="fill:#fff;fill-rule:nonzero;"/><path d="M1024.84,1586.36c-1.633,-0 -2.776,-0.572 -3.429,-1.714c-0.653,-1.143 -0.979,-2.368 -0.979,-3.674c0.163,-2.775 0.816,-4.326 1.959,-4.652c1.143,-0.327 2.53,-0.49 4.163,-0.49c5.224,-0 8.897,-0.939 11.02,-2.816c2.122,-1.878 3.469,-4.245 4.04,-7.102c0.572,-2.857 0.939,-5.836 1.102,-8.938l0,-97.22c-0.163,-3.101 -0.53,-6.081 -1.102,-8.938c-0.571,-2.857 -1.918,-5.224 -4.04,-7.101c-2.123,-1.878 -5.796,-2.817 -11.02,-2.817c-1.633,0 -3.02,-0.163 -4.163,-0.489c-1.143,-0.327 -1.796,-1.878 -1.959,-4.653c-0,-1.306 0.326,-2.531 0.979,-3.674c0.653,-1.142 1.796,-1.714 3.429,-1.714c5.224,0.164 10.162,0.327 14.815,0.49c4.653,0.163 9.428,0.245 14.326,0.245c9.959,-0 20.162,-0.245 30.61,-0.735c1.47,0 2.572,0.572 3.306,1.714c0.735,1.143 1.102,2.368 1.102,3.674c-0.163,2.775 -0.816,4.326 -1.959,4.653c-1.142,0.326 -2.612,0.489 -4.408,0.489c-5.061,0 -8.693,0.939 -10.897,2.817c-2.204,1.877 -3.551,4.244 -4.041,7.101c-0.489,2.857 -0.816,5.837 -0.979,8.938l-0,97.22c0.163,3.102 0.49,6.081 0.979,8.938c0.49,2.857 1.837,5.224 4.041,7.102c2.204,1.877 5.836,2.816 10.897,2.816c1.796,-0 3.266,0.163 4.408,0.49c1.143,0.326 1.796,1.877 1.959,4.652c0,1.306 -0.367,2.531 -1.102,3.674c-0.734,1.142 -1.836,1.714 -3.306,1.714c-10.448,-0.49 -20.57,-0.735 -30.365,-0.735c-4.898,0 -9.714,0.041 -14.448,0.123c-4.735,0.081 -9.714,0.285 -14.938,0.612Z" style="fill:#fff;fill-rule:nonzero;"/><path d="M1108.1,1586.36c-1.632,-0 -2.775,-0.572 -3.428,-1.714c-0.653,-1.143 -0.98,-2.368 -0.98,-3.674c0.164,-2.775 0.817,-4.326 1.96,-4.652c1.142,-0.327 2.53,-0.49 4.163,-0.49c4.408,-0 7.754,-0.898 10.04,-2.694c2.285,-1.796 4.122,-4.163 5.51,-7.102c1.387,-2.938 2.734,-5.958 4.04,-9.06l42.855,-101.383c1.633,-3.918 1.959,-6.897 0.98,-8.938c-0.98,-2.041 -2.612,-3.51 -4.898,-4.408c-2.286,-0.898 -4.816,-1.592 -7.591,-2.081c-2.449,-0.49 -4.082,-0.939 -4.898,-1.347c-0.816,-0.408 -1.224,-1.837 -1.224,-4.286c-0,-2.775 0.979,-4.285 2.938,-4.53c1.959,-0.245 4.245,-0.367 6.857,-0.367c6.693,-0 12.407,0.653 17.142,1.959c4.734,1.306 8.816,3.795 12.244,7.469c3.428,3.673 6.612,9.183 9.551,16.529l41.14,101.383c1.143,2.775 2.367,5.632 3.673,8.571c1.307,2.938 3.062,5.346 5.266,7.224c2.203,1.877 5.02,2.898 8.448,3.061c1.796,-0 3.224,0.163 4.286,0.49c1.061,0.326 1.673,1.877 1.836,4.652c0,1.306 -0.367,2.531 -1.102,3.674c-0.734,1.142 -1.836,1.714 -3.306,1.714c-5.224,-0.327 -9.795,-0.531 -13.713,-0.612c-3.918,-0.082 -8.326,-0.123 -13.224,-0.123c-9.632,0 -19.754,0.245 -30.366,0.735c-1.632,-0 -2.775,-0.572 -3.428,-1.714c-0.653,-1.143 -0.98,-2.368 -0.98,-3.674c0.164,-2.775 0.817,-4.326 1.959,-4.652c1.143,-0.327 2.531,-0.49 4.163,-0.49c8,-0 12.367,-1.469 13.102,-4.408c0.734,-2.939 -0.041,-7.755 -2.327,-14.448l-8.326,-20.326l-60.486,0c-2.449,6.204 -4.204,10.694 -5.265,13.469c-1.061,2.775 -1.715,4.571 -1.959,5.387c-0.245,0.817 -0.449,1.306 -0.613,1.47c-1.795,5.55 -2.734,9.673 -2.816,12.366c-0.081,2.694 1.225,4.449 3.918,5.265c2.694,0.817 7.224,1.225 13.591,1.225c1.796,-0 3.225,0.163 4.286,0.49c1.061,0.326 1.673,1.877 1.837,4.652c-0,1.306 -0.368,2.531 -1.102,3.674c-0.735,1.142 -1.837,1.714 -3.306,1.714c-5.225,-0.327 -9.755,-0.531 -13.591,-0.612c-3.837,-0.082 -8.204,-0.123 -13.102,-0.123c-3.265,0 -5.999,0.041 -8.203,0.123c-2.204,0.081 -4.449,0.163 -6.735,0.245c-2.285,0.081 -5.224,0.204 -8.816,0.367Zm46.529,-60.242l51.425,0l-24.733,-62.935l-0.735,-0l-25.957,62.935Z" style="fill:#fff;fill-rule:nonzero;"/><path d="M1278.79,1586.36c-1.469,-0 -2.53,-0.572 -3.183,-1.714c-0.653,-1.143 -0.98,-2.368 -0.98,-3.674c0.163,-2.775 0.816,-4.326 1.959,-4.652c1.143,-0.327 2.531,-0.49 4.163,-0.49c5.224,-0 8.898,-0.939 11.02,-2.816c2.122,-1.878 3.469,-4.245 4.041,-7.102c0.571,-2.857 0.857,-5.836 0.857,-8.938l-0,-97.22c-0,-3.101 -0.286,-6.081 -0.857,-8.938c-0.572,-2.857 -1.919,-5.224 -4.041,-7.101c-2.122,-1.878 -5.796,-2.817 -11.02,-2.817c-1.632,0 -3.02,-0.163 -4.163,-0.489c-1.143,-0.327 -1.796,-1.878 -1.959,-4.653c0,-1.306 0.327,-2.531 0.98,-3.674c0.653,-1.142 1.714,-1.714 3.183,-1.714c5.388,0.164 10.367,0.327 14.938,0.49c4.571,0.163 9.306,0.245 14.203,0.245c9.959,-0 20.163,-0.245 30.611,-0.735c1.633,0 2.775,0.572 3.428,1.714c0.653,1.143 0.98,2.368 0.98,3.674c-0.163,2.775 -0.816,4.326 -1.959,4.653c-1.143,0.326 -2.531,0.489 -4.163,0.489c-5.061,0 -8.694,0.939 -10.898,2.817c-2.204,1.877 -3.55,4.244 -4.04,7.101c-0.49,2.857 -0.816,5.837 -0.98,8.938l0,100.893c0.164,2.122 0.49,4.408 0.98,6.857c0.49,2.449 1.918,4.489 4.285,6.122c2.367,1.632 6.326,2.367 11.877,2.204l22.04,-0c5.714,-0.163 10.081,-1.102 13.101,-2.816c3.02,-1.715 5.428,-4.612 7.224,-8.694c1.796,-4.081 3.755,-9.714 5.877,-16.897c0.653,-1.632 1.755,-2.694 3.306,-3.183c1.551,-0.49 3.225,-0.572 5.021,-0.245c1.306,0.163 2.652,0.734 4.04,1.714c1.388,0.98 2,2.286 1.837,3.918l-4.898,30.856c-0.49,2.285 -1.265,3.714 -2.326,4.285c-1.061,0.572 -2.653,0.857 -4.776,0.857l-80.322,0c-4.897,0 -9.673,0.041 -14.326,0.123c-4.652,0.081 -9.672,0.285 -15.06,0.612Z" style="fill:#fff;fill-rule:nonzero;"/><path d="M1412.74,1586.36c-1.633,-0 -2.775,-0.572 -3.428,-1.714c-0.653,-1.143 -0.98,-2.368 -0.98,-3.674c0.163,-2.775 0.816,-4.326 1.959,-4.652c1.143,-0.327 2.531,-0.49 4.163,-0.49c4.408,-0 7.755,-0.898 10.04,-2.694c2.286,-1.796 4.123,-4.163 5.51,-7.102c1.388,-2.938 2.735,-5.958 4.041,-9.06l42.855,-101.383c1.632,-3.918 1.959,-6.897 0.979,-8.938c-0.979,-2.041 -2.612,-3.51 -4.897,-4.408c-2.286,-0.898 -4.816,-1.592 -7.592,-2.081c-2.449,-0.49 -4.081,-0.939 -4.897,-1.347c-0.817,-0.408 -1.225,-1.837 -1.225,-4.286c0,-2.775 0.98,-4.285 2.939,-4.53c1.959,-0.245 4.244,-0.367 6.857,-0.367c6.693,-0 12.407,0.653 17.141,1.959c4.735,1.306 8.816,3.795 12.245,7.469c3.428,3.673 6.612,9.183 9.55,16.529l41.141,101.383c1.143,2.775 2.367,5.632 3.673,8.571c1.306,2.938 3.061,5.346 5.265,7.224c2.204,1.877 5.02,2.898 8.449,3.061c1.795,-0 3.224,0.163 4.285,0.49c1.061,0.326 1.673,1.877 1.837,4.652c-0,1.306 -0.368,2.531 -1.102,3.674c-0.735,1.142 -1.837,1.714 -3.306,1.714c-5.224,-0.327 -9.796,-0.531 -13.714,-0.612c-3.918,-0.082 -8.326,-0.123 -13.223,-0.123c-9.633,0 -19.755,0.245 -30.366,0.735c-1.633,-0 -2.776,-0.572 -3.429,-1.714c-0.653,-1.143 -0.979,-2.368 -0.979,-3.674c0.163,-2.775 0.816,-4.326 1.959,-4.652c1.143,-0.327 2.53,-0.49 4.163,-0.49c8,-0 12.367,-1.469 13.101,-4.408c0.735,-2.939 -0.04,-7.755 -2.326,-14.448l-8.326,-20.326l-60.487,0c-2.449,6.204 -4.204,10.694 -5.265,13.469c-1.061,2.775 -1.714,4.571 -1.959,5.387c-0.245,0.817 -0.449,1.306 -0.612,1.47c-1.796,5.55 -2.735,9.673 -2.816,12.366c-0.082,2.694 1.224,4.449 3.918,5.265c2.694,0.817 7.224,1.225 13.591,1.225c1.796,-0 3.224,0.163 4.286,0.49c1.061,0.326 1.673,1.877 1.836,4.652c0,1.306 -0.367,2.531 -1.102,3.674c-0.734,1.142 -1.836,1.714 -3.306,1.714c-5.224,-0.327 -9.754,-0.531 -13.591,-0.612c-3.836,-0.082 -8.203,-0.123 -13.101,-0.123c-3.265,0 -6,0.041 -8.204,0.123c-2.204,0.081 -4.449,0.163 -6.734,0.245c-2.286,0.081 -5.224,0.204 -8.816,0.367Zm46.528,-60.242l51.426,0l-24.733,-62.935l-0.735,-0l-25.958,62.935Z" style="fill:#fff;fill-rule:nonzero;"/><path d="M1633.63,1588.07l-40.651,-127.34c-2.612,-6.694 -5.224,-11.51 -7.836,-14.448c-2.612,-2.939 -6.53,-4.898 -11.755,-5.877c-2.285,-0.49 -3.877,-0.898 -4.775,-1.225c-0.898,-0.326 -1.347,-1.796 -1.347,-4.408c0,-2.775 0.98,-4.285 2.939,-4.53c1.959,-0.245 4.245,-0.367 6.857,-0.367c10.938,0.163 19.427,2.163 25.468,5.999c6.04,3.837 10.856,10.408 14.448,19.713l27.917,89.628l0.979,0l29.876,-114.116l12.734,-0l39.916,114.116l0.735,0l27.672,-92.321c1.306,-5.225 1.265,-8.53 -0.122,-9.918c-1.388,-1.388 -4.939,-2.082 -10.653,-2.082c-1.632,0 -3.02,-0.163 -4.163,-0.489c-1.143,-0.327 -1.796,-1.878 -1.959,-4.653c0,-1.306 0.327,-2.531 0.98,-3.674c0.653,-1.142 1.714,-1.714 3.183,-1.714c5.224,0.164 9.755,0.327 13.591,0.49c3.837,0.163 8.204,0.245 13.102,0.245c3.265,-0 5.958,-0.041 8.081,-0.122c2.122,-0.082 4.285,-0.164 6.489,-0.245c2.204,-0.082 5.02,-0.204 8.449,-0.368c1.632,0 2.775,0.572 3.428,1.714c0.653,1.143 0.98,2.368 0.98,3.674c-0.164,2.775 -0.776,4.326 -1.837,4.653c-1.061,0.326 -2.49,0.489 -4.286,0.489c-6.203,0 -11.305,1.184 -15.305,3.551c-4,2.367 -6.897,6.734 -8.693,13.101l-40.161,130.524l-11.51,0l-39.671,-116.81l-31.59,116.81l-11.51,0Z" style="fill:#fff;fill-rule:nonzero;"/><path d="M259.676,1799.64c-1.401,0 -2.381,-0.49 -2.942,-1.471c-0.56,-0.981 -0.84,-2.031 -0.84,-3.152c0.14,-2.382 0.7,-3.713 1.681,-3.993c0.981,-0.281 2.171,-0.421 3.573,-0.421c3.782,0 6.655,-0.77 8.616,-2.312c1.962,-1.541 3.538,-3.572 4.729,-6.094c1.191,-2.522 2.347,-5.114 3.468,-7.776l36.778,-87.007c1.401,-3.363 1.681,-5.92 0.841,-7.671c-0.841,-1.752 -2.242,-3.013 -4.204,-3.783c-1.961,-0.771 -4.133,-1.366 -6.515,-1.786c-2.101,-0.421 -3.502,-0.806 -4.203,-1.156c-0.701,-0.351 -1.051,-1.577 -1.051,-3.678c0,-2.382 0.841,-3.678 2.522,-3.888c1.681,-0.21 3.643,-0.315 5.885,-0.315c5.744,-0 10.648,0.56 14.711,1.681c4.063,1.121 7.566,3.257 10.508,6.41c2.942,3.152 5.675,7.881 8.196,14.186l35.308,87.007c0.98,2.382 2.031,4.834 3.152,7.355c1.121,2.522 2.627,4.589 4.519,6.2c1.891,1.611 4.308,2.487 7.25,2.627c1.541,0 2.767,0.14 3.678,0.421c0.911,0.28 1.436,1.611 1.576,3.993c0,1.121 -0.315,2.171 -0.946,3.152c-0.63,0.981 -1.576,1.471 -2.837,1.471c-4.483,-0.28 -8.406,-0.455 -11.769,-0.525c-3.362,-0.07 -7.145,-0.105 -11.349,-0.105c-8.266,-0 -16.953,0.21 -26.06,0.63c-1.401,0 -2.381,-0.49 -2.942,-1.471c-0.56,-0.981 -0.841,-2.031 -0.841,-3.152c0.141,-2.382 0.701,-3.713 1.682,-3.993c0.981,-0.281 2.171,-0.421 3.573,-0.421c6.865,0 10.613,-1.261 11.243,-3.783c0.631,-2.522 -0.035,-6.655 -1.996,-12.399l-7.146,-17.444l-51.91,0c-2.101,5.324 -3.608,9.177 -4.518,11.559c-0.911,2.382 -1.471,3.923 -1.682,4.624c-0.21,0.7 -0.385,1.121 -0.525,1.261c-1.541,4.763 -2.347,8.301 -2.417,10.613c-0.07,2.312 1.051,3.818 3.363,4.518c2.311,0.701 6.199,1.051 11.664,1.051c1.541,0 2.767,0.14 3.678,0.421c0.91,0.28 1.436,1.611 1.576,3.993c-0,1.121 -0.316,2.171 -0.946,3.152c-0.63,0.981 -1.576,1.471 -2.837,1.471c-4.484,-0.28 -8.372,-0.455 -11.664,-0.525c-3.293,-0.07 -7.041,-0.105 -11.244,-0.105c-2.802,-0 -5.149,0.035 -7.04,0.105c-1.892,0.07 -3.818,0.14 -5.78,0.21c-1.961,0.07 -4.483,0.175 -7.566,0.315Zm39.931,-51.7l44.134,0l-21.226,-54.011l-0.631,-0l-22.277,54.011Z" style="fill:#fff;fill-rule:nonzero;"/><path d="M406.159,1799.64c-1.261,0 -2.171,-0.49 -2.732,-1.471c-0.56,-0.981 -0.84,-2.031 -0.84,-3.152c0.14,-2.382 0.7,-3.713 1.681,-3.993c0.981,-0.281 2.172,-0.421 3.573,-0.421c4.483,0 7.636,-0.805 9.457,-2.417c1.821,-1.611 2.977,-3.642 3.468,-6.094c0.49,-2.452 0.735,-5.009 0.735,-7.671l0,-83.435c0,-2.662 -0.245,-5.219 -0.735,-7.67c-0.491,-2.452 -1.647,-4.484 -3.468,-6.095c-1.821,-1.611 -4.974,-2.417 -9.457,-2.417c-1.401,-0 -2.592,-0.14 -3.573,-0.42c-0.981,-0.281 -1.541,-1.612 -1.681,-3.993c-0,-1.121 0.28,-2.172 0.84,-3.153c0.561,-0.981 1.471,-1.471 2.732,-1.471c4.624,0.14 8.897,0.28 12.82,0.42c3.923,0.14 7.986,0.211 12.19,0.211l32.785,-0c13.45,-0 25.64,2.662 36.568,7.986c10.928,5.324 19.615,12.96 26.06,22.907c6.445,9.948 9.668,21.997 9.668,36.148c-0,11.209 -2.172,20.946 -6.515,29.213c-4.344,8.266 -10.158,15.096 -17.444,20.491c-7.285,5.394 -15.447,9.387 -24.484,11.979c-9.037,2.592 -18.249,3.888 -27.636,3.888l-29.002,-0c-4.204,-0 -8.267,0.035 -12.19,0.105c-3.923,0.07 -8.196,0.245 -12.82,0.525Zm57.164,-8.406c11.349,-0 20.526,-2.417 27.532,-7.251c7.005,-4.834 12.084,-11.594 15.236,-20.28c3.153,-8.687 4.729,-18.775 4.729,-30.264c0,-11.489 -2.032,-21.717 -6.095,-30.683c-4.063,-8.967 -9.982,-16.008 -17.758,-21.122c-7.776,-5.114 -17.199,-7.671 -28.267,-7.671c-2.242,0 -5.184,0.035 -8.827,0.105c-3.643,0.07 -6.165,0.106 -7.566,0.106l0,102.769c0,5.604 1.717,9.387 5.149,11.348c3.433,1.962 8.722,2.943 15.867,2.943Z" style="fill:#fff;fill-rule:nonzero;"/><path d="M601.82,1801.11c0,0 -0.735,-1.996 -2.207,-5.989c-1.471,-3.993 -3.362,-9.247 -5.674,-15.762c-2.312,-6.515 -4.904,-13.661 -7.776,-21.437c-2.872,-7.776 -5.744,-15.552 -8.617,-23.328c-2.872,-7.776 -5.464,-14.886 -7.776,-21.331c-2.311,-6.445 -4.203,-11.629 -5.674,-15.552c-1.471,-3.923 -2.207,-5.885 -2.207,-5.885c-2.241,-5.744 -4.483,-9.877 -6.725,-12.399c-2.242,-2.522 -5.604,-4.204 -10.088,-5.044c-1.961,-0.421 -3.327,-0.771 -4.098,-1.051c-0.77,-0.28 -1.156,-1.541 -1.156,-3.783c0,-2.382 0.841,-3.678 2.522,-3.888c1.682,-0.21 3.643,-0.315 5.885,-0.315c9.387,0.14 16.673,1.856 21.857,5.149c5.184,3.292 9.317,8.932 12.399,16.918l30.474,81.963l0.63,-0l29.003,-84.275c1.541,-4.484 1.611,-7.321 0.21,-8.512c-1.401,-1.191 -4.554,-1.786 -9.458,-1.786c-1.401,-0 -2.592,-0.14 -3.572,-0.42c-0.981,-0.281 -1.541,-1.612 -1.682,-3.993c0,-1.121 0.281,-2.172 0.841,-3.153c0.56,-0.981 1.471,-1.471 2.732,-1.471c4.484,0.14 8.372,0.28 11.664,0.42c3.293,0.14 7.041,0.211 11.244,0.211c2.802,-0 5.114,-0.036 6.935,-0.106c1.822,-0.07 3.678,-0.14 5.569,-0.21c1.892,-0.07 4.309,-0.175 7.251,-0.315c1.401,0 2.382,0.49 2.942,1.471c0.561,0.981 0.841,2.032 0.841,3.153c-0.14,2.381 -0.666,3.712 -1.576,3.993c-0.911,0.28 -2.137,0.42 -3.678,0.42c-5.324,-0 -9.527,0.981 -12.61,2.942c-3.082,1.962 -5.744,5.745 -7.986,11.349c0,-0.14 -0.736,1.786 -2.207,5.779c-1.471,3.994 -3.397,9.318 -5.779,15.973c-2.382,6.655 -5.009,13.976 -7.881,21.962c-2.872,7.986 -5.78,15.972 -8.722,23.958c-2.942,7.986 -5.604,15.342 -7.986,22.067c-2.382,6.725 -4.308,12.12 -5.78,16.183c-1.471,4.063 -2.206,6.094 -2.206,6.094l-9.878,0Z" style="fill:#fff;fill-rule:nonzero;"/><path d="M746.622,1803.22c-10.228,-0 -19.475,-1.891 -27.742,-5.674c-8.266,-3.783 -15.341,-8.897 -21.226,-15.342c-5.885,-6.445 -10.368,-13.766 -13.45,-21.962c-3.083,-8.196 -4.624,-16.778 -4.624,-25.745c0,-11.629 1.997,-21.927 5.99,-30.894c3.993,-8.967 9.282,-16.533 15.867,-22.697c6.585,-6.165 13.836,-10.824 21.752,-13.976c7.916,-3.153 15.727,-4.729 23.433,-4.729c10.508,0 19.93,1.892 28.267,5.675c8.336,3.783 15.446,8.897 21.331,15.341c5.885,6.445 10.368,13.766 13.45,21.962c3.083,8.197 4.624,16.708 4.624,25.535c-0,11.629 -2.032,21.927 -6.095,30.894c-4.063,8.967 -9.457,16.533 -16.182,22.697c-6.725,6.165 -14.046,10.859 -21.962,14.081c-7.916,3.223 -15.727,4.834 -23.433,4.834Zm-0.21,-9.247c9.947,-0 18.074,-2.942 24.378,-8.827c6.305,-5.884 10.964,-13.625 13.976,-23.223c3.012,-9.597 4.519,-20 4.519,-31.209c-0,-10.508 -1.577,-20.281 -4.729,-29.318c-3.152,-9.036 -7.881,-16.322 -14.186,-21.856c-6.305,-5.535 -14.291,-8.302 -23.958,-8.302c-9.808,0 -17.829,2.907 -24.064,8.722c-6.235,5.814 -10.823,13.45 -13.766,22.908c-2.942,9.457 -4.413,19.79 -4.413,30.999c0,10.508 1.506,20.35 4.519,29.527c3.012,9.177 7.67,16.568 13.975,22.172c6.305,5.605 14.221,8.407 23.749,8.407Z" style="fill:#fff;fill-rule:nonzero;"/><path d="M905.925,1803.22c-11.77,-0 -22.593,-2.487 -32.47,-7.461c-9.878,-4.974 -17.794,-12.609 -23.749,-22.907c-5.954,-10.298 -8.932,-23.363 -8.932,-39.196c0,-14.291 3.118,-26.795 9.353,-37.514c6.234,-10.718 14.886,-19.054 25.955,-25.009c11.068,-5.954 23.748,-8.932 38.039,-8.932c4.904,0 9.948,0.561 15.132,1.682c5.184,1.12 10.017,2.837 14.501,5.149c4.483,2.311 8.091,5.359 10.823,9.142c2.732,3.783 4.098,8.336 4.098,13.66c0,5.745 -1.751,10.964 -5.254,15.657c-3.503,4.694 -8.406,7.041 -14.711,7.041c-2.662,-0 -5.429,-0.666 -8.302,-1.997c-2.872,-1.331 -4.378,-3.187 -4.518,-5.569c-0,-0.421 0.876,-1.191 2.627,-2.312c1.751,-1.121 3.503,-2.837 5.254,-5.149c1.751,-2.312 2.627,-5.359 2.627,-9.142c0,-6.025 -2.312,-10.823 -6.935,-14.396c-4.624,-3.573 -10.578,-5.359 -17.864,-5.359c-8.547,-0 -16.323,2.382 -23.328,7.145c-7.005,4.764 -12.575,11.734 -16.708,20.911c-4.133,9.177 -6.2,20.421 -6.2,33.731c0,12.61 1.997,23.433 5.99,32.47c3.993,9.037 9.597,15.973 16.813,20.806c7.215,4.834 15.587,7.251 25.114,7.251c4.624,0 8.617,-0.28 11.979,-0.841c3.363,-0.56 6.936,-1.401 10.719,-2.522l-0,-21.436c-0,-3.923 -0.14,-7.041 -0.421,-9.352c-0.28,-2.312 -1.261,-4.028 -2.942,-5.149c-1.681,-1.121 -4.623,-1.682 -8.827,-1.682c-1.401,0 -2.697,-0.14 -3.888,-0.42c-1.191,-0.28 -1.856,-1.611 -1.996,-3.993c-0,-1.121 0.385,-2.172 1.156,-3.152c0.77,-0.981 1.856,-1.472 3.257,-1.472c4.484,0.141 8.267,0.281 11.349,0.421c3.082,0.14 7.005,0.21 11.769,0.21c4.764,-0 8.652,-0.07 11.664,-0.21c3.012,-0.14 6.69,-0.28 11.034,-0.421c1.401,0 2.416,0.491 3.047,1.472c0.63,0.98 0.946,2.031 0.946,3.152c-0.141,2.382 -0.771,3.713 -1.892,3.993c-1.121,0.28 -2.452,0.42 -3.993,0.42c-3.923,0 -6.69,0.596 -8.301,1.787c-1.612,1.191 -2.592,2.977 -2.943,5.359c-0.35,2.382 -0.525,5.394 -0.525,9.037l-0,24.799c-5.464,2.522 -10.543,4.554 -15.237,6.095c-4.693,1.541 -9.667,2.627 -14.921,3.257c-5.254,0.631 -11.384,0.946 -18.389,0.946Z" style="fill:#fff;fill-rule:nonzero;"/><path d="M983.474,1799.64c-1.401,0 -2.381,-0.49 -2.942,-1.471c-0.56,-0.981 -0.841,-2.031 -0.841,-3.152c0.141,-2.382 0.701,-3.713 1.682,-3.993c0.98,-0.281 2.171,-0.421 3.572,-0.421c3.783,0 6.656,-0.77 8.617,-2.312c1.962,-1.541 3.538,-3.572 4.729,-6.094c1.191,-2.522 2.347,-5.114 3.467,-7.776l36.779,-87.007c1.401,-3.363 1.681,-5.92 0.84,-7.671c-0.84,-1.752 -2.241,-3.013 -4.203,-3.783c-1.961,-0.771 -4.133,-1.366 -6.515,-1.786c-2.101,-0.421 -3.503,-0.806 -4.203,-1.156c-0.701,-0.351 -1.051,-1.577 -1.051,-3.678c0,-2.382 0.841,-3.678 2.522,-3.888c1.681,-0.21 3.643,-0.315 5.885,-0.315c5.744,-0 10.648,0.56 14.711,1.681c4.063,1.121 7.566,3.257 10.508,6.41c2.942,3.152 5.674,7.881 8.196,14.186l35.308,87.007c0.98,2.382 2.031,4.834 3.152,7.355c1.121,2.522 2.627,4.589 4.518,6.2c1.892,1.611 4.309,2.487 7.251,2.627c1.541,0 2.767,0.14 3.678,0.421c0.911,0.28 1.436,1.611 1.576,3.993c0,1.121 -0.315,2.171 -0.946,3.152c-0.63,0.981 -1.576,1.471 -2.837,1.471c-4.483,-0.28 -8.406,-0.455 -11.769,-0.525c-3.362,-0.07 -7.145,-0.105 -11.349,-0.105c-8.266,-0 -16.953,0.21 -26.06,0.63c-1.401,0 -2.382,-0.49 -2.942,-1.471c-0.56,-0.981 -0.841,-2.031 -0.841,-3.152c0.14,-2.382 0.701,-3.713 1.682,-3.993c0.98,-0.281 2.171,-0.421 3.572,-0.421c6.866,0 10.614,-1.261 11.244,-3.783c0.631,-2.522 -0.035,-6.655 -1.996,-12.399l-7.146,-17.444l-51.91,0c-2.102,5.324 -3.608,9.177 -4.518,11.559c-0.911,2.382 -1.472,3.923 -1.682,4.624c-0.21,0.7 -0.385,1.121 -0.525,1.261c-1.541,4.763 -2.347,8.301 -2.417,10.613c-0.07,2.312 1.051,3.818 3.363,4.518c2.311,0.701 6.199,1.051 11.664,1.051c1.541,0 2.767,0.14 3.677,0.421c0.911,0.28 1.437,1.611 1.577,3.993c-0,1.121 -0.316,2.171 -0.946,3.152c-0.631,0.981 -1.576,1.471 -2.837,1.471c-4.484,-0.28 -8.372,-0.455 -11.664,-0.525c-3.293,-0.07 -7.041,-0.105 -11.244,-0.105c-2.802,-0 -5.149,0.035 -7.04,0.105c-1.892,0.07 -3.818,0.14 -5.78,0.21c-1.961,0.07 -4.483,0.175 -7.566,0.315Zm39.931,-51.7l44.134,0l-21.226,-54.011l-0.631,-0l-22.277,54.011Z" style="fill:#fff;fill-rule:nonzero;"/><path d="M1129.96,1799.64c-1.261,0 -2.171,-0.49 -2.732,-1.471c-0.56,-0.981 -0.841,-2.031 -0.841,-3.152c0.141,-2.382 0.701,-3.713 1.682,-3.993c0.981,-0.281 2.171,-0.421 3.573,-0.421c4.483,0 7.635,-0.805 9.457,-2.417c1.821,-1.611 2.977,-3.642 3.468,-6.094c0.49,-2.452 0.735,-5.009 0.735,-7.671l0,-83.435c0,-2.662 -0.245,-5.219 -0.735,-7.67c-0.491,-2.452 -1.647,-4.484 -3.468,-6.095c-1.822,-1.611 -4.974,-2.417 -9.457,-2.417c-1.402,-0 -2.592,-0.14 -3.573,-0.42c-0.981,-0.281 -1.541,-1.612 -1.682,-3.993c0,-1.121 0.281,-2.172 0.841,-3.153c0.561,-0.981 1.471,-1.471 2.732,-1.471c4.624,0.14 8.897,0.28 12.82,0.42c3.923,0.14 7.986,0.211 12.19,0.211l32.785,-0c13.45,-0 25.64,2.662 36.568,7.986c10.928,5.324 19.615,12.96 26.06,22.907c6.445,9.948 9.668,21.997 9.668,36.148c-0,11.209 -2.172,20.946 -6.516,29.213c-4.343,8.266 -10.157,15.096 -17.443,20.491c-7.286,5.394 -15.447,9.387 -24.484,11.979c-9.037,2.592 -18.249,3.888 -27.636,3.888l-29.002,-0c-4.204,-0 -8.267,0.035 -12.19,0.105c-3.923,0.07 -8.196,0.245 -12.82,0.525Zm57.164,-8.406c11.349,-0 20.526,-2.417 27.532,-7.251c7.005,-4.834 12.084,-11.594 15.236,-20.28c3.153,-8.687 4.729,-18.775 4.729,-30.264c-0,-11.489 -2.032,-21.717 -6.095,-30.683c-4.063,-8.967 -9.982,-16.008 -17.758,-21.122c-7.776,-5.114 -17.199,-7.671 -28.267,-7.671c-2.242,0 -5.184,0.035 -8.827,0.105c-3.643,0.07 -6.165,0.106 -7.566,0.106l0,102.769c0,5.604 1.716,9.387 5.149,11.348c3.433,1.962 8.722,2.943 15.867,2.943Z" style="fill:#fff;fill-rule:nonzero;"/><path d="M1353.57,1803.22c-10.228,-0 -19.475,-1.891 -27.742,-5.674c-8.266,-3.783 -15.342,-8.897 -21.226,-15.342c-5.885,-6.445 -10.368,-13.766 -13.451,-21.962c-3.082,-8.196 -4.623,-16.778 -4.623,-25.745c-0,-11.629 1.996,-21.927 5.99,-30.894c3.993,-8.967 9.282,-16.533 15.867,-22.697c6.585,-6.165 13.835,-10.824 21.752,-13.976c7.916,-3.153 15.727,-4.729 23.433,-4.729c10.508,0 19.93,1.892 28.266,5.675c8.337,3.783 15.447,8.897 21.332,15.341c5.884,6.445 10.368,13.766 13.45,21.962c3.083,8.197 4.624,16.708 4.624,25.535c-0,11.629 -2.032,21.927 -6.095,30.894c-4.063,8.967 -9.457,16.533 -16.182,22.697c-6.726,6.165 -14.046,10.859 -21.962,14.081c-7.916,3.223 -15.727,4.834 -23.433,4.834Zm-0.211,-9.247c9.948,-0 18.074,-2.942 24.379,-8.827c6.305,-5.884 10.964,-13.625 13.976,-23.223c3.012,-9.597 4.518,-20 4.518,-31.209c0,-10.508 -1.576,-20.281 -4.728,-29.318c-3.153,-9.036 -7.881,-16.322 -14.186,-21.856c-6.305,-5.535 -14.291,-8.302 -23.959,-8.302c-9.807,0 -17.828,2.907 -24.063,8.722c-6.235,5.814 -10.823,13.45 -13.766,22.908c-2.942,9.457 -4.413,19.79 -4.413,30.999c-0,10.508 1.506,20.35 4.518,29.527c3.013,9.177 7.671,16.568 13.976,22.172c6.305,5.605 14.221,8.407 23.748,8.407Z" style="fill:#fff;fill-rule:nonzero;"/><path d="M1493.12,1803.22c-14.571,-0 -25.78,-2.557 -33.626,-7.671c-7.846,-5.114 -11.769,-12.645 -11.769,-22.592c0,-5.044 1.717,-9.212 5.149,-12.505c3.433,-3.293 7.881,-4.939 13.345,-4.939c3.643,0.14 6.2,1.051 7.671,2.732c1.471,1.682 2.207,2.943 2.207,3.783c0,0.28 -0.63,0.736 -1.891,1.366c-1.261,0.631 -2.522,1.752 -3.783,3.363c-1.261,1.611 -1.892,4.098 -1.892,7.461c0,6.304 1.962,11.313 5.885,15.026c3.923,3.713 10.158,5.569 18.704,5.569c6.025,0 11.174,-1.155 15.447,-3.467c4.273,-2.312 7.531,-5.324 9.773,-9.037c2.241,-3.713 3.362,-7.531 3.362,-11.454c0,-5.885 -1.681,-10.718 -5.044,-14.501c-3.362,-3.783 -7.741,-7.041 -13.135,-9.773c-5.394,-2.732 -11.103,-5.359 -17.128,-7.881c-6.025,-2.522 -11.734,-5.394 -17.128,-8.616c-5.394,-3.223 -9.843,-7.251 -13.346,-12.085c-3.502,-4.833 -5.324,-10.893 -5.464,-18.179c-0.14,-8.827 1.752,-16.007 5.675,-21.541c3.923,-5.535 9.387,-9.598 16.392,-12.19c7.006,-2.592 14.782,-3.888 23.328,-3.888c6.305,0 12.505,0.911 18.6,2.732c6.094,1.822 11.138,4.659 15.131,8.512c3.993,3.853 5.99,8.932 5.99,15.237c-0,5.044 -1.716,9.212 -5.149,12.504c-3.433,3.293 -7.881,4.939 -13.345,4.939c-3.643,-0.28 -6.2,-1.226 -7.671,-2.837c-1.471,-1.611 -2.207,-2.837 -2.207,-3.678c0,-0.42 0.841,-0.946 2.522,-1.576c1.681,-0.631 3.363,-1.751 5.044,-3.363c1.681,-1.611 2.522,-4.028 2.522,-7.25c-0,-5.324 -2.032,-9.423 -6.095,-12.295c-4.063,-2.872 -9.107,-4.308 -15.132,-4.308c-9.107,-0 -15.727,2.137 -19.86,6.41c-4.133,4.273 -6.2,9.072 -6.2,14.396c0,5.184 1.401,9.387 4.204,12.61c2.802,3.222 7.005,6.375 12.609,9.457c6.305,3.363 12.68,6.48 19.125,9.352c6.445,2.872 12.435,6.06 17.969,9.563c5.534,3.502 9.983,7.881 13.345,13.135c3.363,5.254 5.044,12.014 5.044,20.28c0,7.146 -2.207,13.521 -6.62,19.125c-4.413,5.604 -10.333,10.018 -17.759,13.24c-7.425,3.223 -15.692,4.834 -24.799,4.834Z" style="fill:#fff;fill-rule:nonzero;"/></g><path d="M899.094,0l734.424,1242l-1468.85,-0l734.423,-1242Zm5.617,52.185l-34.365,67.222l616.138,1070.41l73.059,-0l-654.832,-1137.63Zm-119.237,208.74l-37.013,62.622l498.634,866.27l73.059,-0l-534.68,-928.892Zm61.995,-104.37l-34.48,58.825l559.879,972.953l73.059,0l-598.458,-1031.78Zm-77.683,1024.69l-0,5.614l-193.903,-0l0,-10.937l7.981,0c15.567,0 26.504,-2.167 32.81,-6.503c4.335,-3.152 6.502,-7.685 6.502,-13.596c0,-3.547 -0.591,-7.193 -1.773,-10.937c-0.394,-1.773 -3.35,-9.163 -8.868,-22.169l-21.282,-49.953l-141.584,-0l-16.848,39.017c-5.518,13.005 -8.276,23.745 -8.276,32.218c-0,11.232 4.532,19.509 13.596,24.829c5.321,3.153 18.425,5.518 39.313,7.094l-0,10.937l-133.308,-0l-0,-10.937c14.385,-2.167 26.208,-8.128 35.47,-17.883c9.261,-9.754 20.691,-29.903 34.288,-60.446l143.357,-319.821l5.616,-0l79.691,181.217c2.358,-23.166 7.452,-45.013 15.278,-65.538c11.206,-29.383 26.825,-53.013 46.859,-70.891c15.449,-13.693 33.912,-24.581 55.389,-32.664c21.476,-8.083 42.996,-12.124 64.557,-12.124c20.543,-0 42.274,4.374 65.194,13.122l20.882,7.703c4.075,1.712 7.64,2.567 10.696,2.567c4.245,0 7.725,-1.997 10.441,-5.99c1.189,-1.902 2.632,-5.04 4.33,-9.415l6.112,0l3.056,127.519l-5.858,0c-1.867,-5.515 -3.31,-9.699 -4.329,-12.552c-5.942,-18.258 -10.781,-31.856 -14.516,-40.795c-6.621,-15.975 -16.213,-30.619 -28.777,-43.932c-9.507,-10.08 -19.354,-17.402 -29.541,-21.967c-10.186,-4.564 -21.646,-6.846 -34.379,-6.846c-19.185,-0 -35.823,4.659 -49.914,13.978c-12.394,8.178 -23.939,19.922 -34.635,35.232c-10.695,15.31 -19.439,32.759 -26.23,52.348c-9.677,27.577 -14.516,58.958 -14.516,94.142c0,29.859 3.311,56.77 9.932,80.733c6.621,23.963 16.299,44.028 29.032,60.194c23.429,30.049 54.498,45.073 93.207,45.073c19.354,0 36.756,-3.756 52.206,-11.268c15.449,-7.512 27.418,-18.115 35.907,-31.808c9.847,-15.786 16.978,-37.086 21.392,-63.902l5.857,1.141c-3.226,30.049 -10.526,53.917 -21.901,71.604c-10.866,16.927 -25.848,29.859 -44.948,38.798c-19.1,8.938 -41.213,13.408 -66.34,13.408c-16.232,-0 -31.974,-1.871 -47.225,-5.614Zm-188.582,-130.354l-59.708,-138.038l-61.482,138.038l121.19,-0Z" style="fill:#fff;"/></g></svg>